<svg xmlns="http://www.w3.org/2000/svg" width="208" height="71" viewBox="0 0 208 71"><g><g><g><path fill="#fff" d="M197.516 11.726c-5.77 0-10.447 4.678-10.447 10.448 0 5.769 4.677 10.447 10.447 10.447s10.448-4.678 10.448-10.447c0-5.77-4.678-10.448-10.448-10.448m0 16.715a6.268 6.268 0 1 1 0-12.536 6.268 6.268 0 0 1 0 12.536"/></g><g><path fill="#fff" d="M116.114 11.736a10.416 10.416 0 0 0-5.999 1.544.51.51 0 0 1-.781-.43v-.617a.51.51 0 0 0-.509-.51h-3.161a.51.51 0 0 0-.509.51v28.229c0 .282.228.51.509.51h3.161a.51.51 0 0 0 .509-.51v-8.97c0-.401.44-.64.781-.43a10.4 10.4 0 0 0 5.487 1.557c5.933 0 10.711-4.946 10.436-10.94-.246-5.346-4.579-9.687-9.924-9.943m-.105 16.69a6.269 6.269 0 0 1-6.662-6.662c.197-3.12 2.728-5.651 5.848-5.848a6.269 6.269 0 0 1 6.662 6.662c-.196 3.12-2.728 5.65-5.848 5.848"/></g><g><path fill="#fff" d="M87.479 20.082a.509.509 0 0 1-.459-.731 6.268 6.268 0 0 1 10.118-1.521c.098.102.23.162.371.162h3.87a.51.51 0 0 0 .45-.75 10.441 10.441 0 0 0-9.657-5.508c-5.338.222-9.695 4.523-9.985 9.858-.041.766 0 1.514.116 2.238a.511.511 0 0 0 .503.43h14.952c.375 0 .628.396.458.73a6.267 6.267 0 0 1-10.117 1.523.515.515 0 0 0-.371-.163h-3.871a.51.51 0 0 0-.449.75 10.44 10.44 0 0 0 9.659 5.509c5.338-.224 9.694-4.525 9.983-9.86.041-.764 0-1.513-.116-2.237a.511.511 0 0 0-.504-.43z"/></g><g><path fill="#fff" d="M176.187 15.908a6.253 6.253 0 0 1 4.783 1.922c.097.102.23.162.372.162h3.868a.51.51 0 0 0 .45-.75 10.443 10.443 0 0 0-9.708-5.507c-5.35.249-9.692 4.592-9.938 9.94-.277 5.996 4.501 10.943 10.435 10.943 3.987 0 7.45-2.234 9.211-5.518a.51.51 0 0 0-.45-.75h-3.868a.514.514 0 0 0-.372.163 6.269 6.269 0 0 1-10.774-4.786c.218-3.16 2.827-5.69 5.991-5.82"/></g><g><path fill="#fff" d="M143.029 13.28a10.41 10.41 0 0 0-5.999-1.544c-5.346.255-9.679 4.597-9.925 9.943-.275 5.993 4.503 10.939 10.436 10.939a10.4 10.4 0 0 0 5.487-1.555.51.51 0 0 1 .782.429v.618c0 .28.227.508.509.508h3.16a.509.509 0 0 0 .509-.508V12.233a.51.51 0 0 0-.509-.51h-3.16a.509.509 0 0 0-.509.51v.618a.51.51 0 0 1-.781.429m-5.488 15.159a6.268 6.268 0 1 1 0-12.536 6.27 6.27 0 0 1 0 12.536"/></g><g><path fill="#fff" d="M111.423 38.396v-3.207c0-.244.199-.442.443-.442h95.654c.245 0 .444.198.444.442v3.207a.443.443 0 0 1-.444.443h-95.654a.443.443 0 0 1-.443-.443"/></g><g><path fill="#fff" d="M82.171 38.439v-3.293c0-.245.198-.443.443-.443h20.008c.245 0 .443.198.443.443v3.293a.443.443 0 0 1-.443.443H82.614a.443.443 0 0 1-.443-.443"/></g><g><path fill="#fff" d="M166.87 14.435a.512.512 0 0 0-.14-.667 10.394 10.394 0 0 0-6.205-2.044c-2.012 0-3.892.57-5.487 1.556a.51.51 0 0 1-.782-.43v-.617a.508.508 0 0 0-.508-.51h-3.161a.508.508 0 0 0-.509.51v19.876c0 .28.227.509.509.509h3.161a.508.508 0 0 0 .508-.51v-9.811c0-3.426 2.697-6.314 6.122-6.392a6.246 6.246 0 0 1 4.117 1.415.525.525 0 0 0 .788-.145z"/></g><g><path fill="#9aef2b" d="M70.062 29.919c-.164-1.088-1.099-1.792-2.199-1.792H57.117c-.972 0-1.674.819-1.429 1.76.784 3.018.919 6.248.242 9.633-1.665 8.334-8.273 14.819-16.628 16.379-7.506 1.4-14.476-1.434-19.177-6.236-.483-.493-1.145-1.031-1.835-1.031H5.242c-1.109 0-1.826 1.426-1.316 2.412C9.908 62.592 22.092 70.536 36.07 70.21c18.831-.44 34.038-15.617 34.382-34.45a34.24 34.24 0 0 0-.39-5.841"/></g><g><path fill="#9aef2b" d="M14.804 40.452c-.784-2.94-.951-6.07-.351-9.366 1.572-8.63 8.413-15.35 17.061-16.822C38.945 13 45.822 15.859 50.449 20.66c.484.502 1.153 1.023 1.851 1.023h12.983c1.105 0 1.825-1.394 1.32-2.378C60.962 8.289 49.69.522 36.585.025 16.088-.75-.81 16.144.03 36.638c.056 1.366.189 2.557.397 3.878.165 1.052 1.071 1.673 2.135 1.673h10.814c.973 0 1.679-.796 1.428-1.736"/></g><g><g><path fill="#fff" d="M84.578 54.242c0-.457.216-.686.648-.686h6.866V52.26c0-.773-.602-1.16-1.805-1.16H86.07c-1.618 0-2.426.412-2.426 1.234v3.639c0 .789.81 1.184 2.429 1.184h1.732c.44 0 .661.21.661.635 0 .44-.221.66-.661.66h-1.32c-2.941 0-4.411-.893-4.411-2.68V52.46c0-1.77 1.449-2.654 4.348-2.654h3.551c2.426 0 3.639.764 3.639 2.292v2.08c0 .492-.229.737-.686.737h-7.7c-.432 0-.648-.225-.648-.673z"/></g><g><path fill="#fff" d="M105.249 57.668c0 .557.279.835.835.835.565 0 .847-.278.847-.835v-7.912c0-.473-.282-.71-.847-.71-.556 0-.835.237-.835.71zm4.623-9.258c2.218 0 3.327.632 3.327 1.894v7.439c0 .465.289.698.866.698.561 0 .841-.233.841-.698v-7.576c0-2.076-1.758-3.115-5.274-3.115h-7.082c-3.716 0-5.574 1.039-5.574 3.115v7.576c0 .465.27.698.81.698.573 0 .86-.233.86-.698v-7.451c0-1.254 1.208-1.882 3.626-1.882z"/></g><g><path fill="#fff" d="M129.696 55.824c0 1.753-1.354 2.629-4.062 2.629h-3.177c-2.775 0-4.162-.876-4.162-2.63v-.385c0-.531.257-.798.773-.798.531 0 .797.267.797.798v.386c0 .889.806 1.334 2.418 1.334h3.6c1.471 0 2.206-.445 2.206-1.334v-.386c0-.531.266-.798.797-.798.54 0 .81.267.81.798zm-1.607-3.476c0-.831-.74-1.246-2.218-1.246h-3.601c-1.603 0-2.405.465-2.405 1.395v.337c0 .515-.266.772-.797.772-.516 0-.773-.257-.773-.772v-.337c0-1.794 1.404-2.691 4.212-2.691h3.127c2.708 0 4.062.893 4.062 2.679v.349c0 .515-.27.772-.81.772-.531 0-.797-.257-.797-.772z"/></g><g><path fill="#fff" d="M144.474 55.999c0 1.636-1.454 2.454-4.361 2.454h-3.003c-2.774 0-4.162-.83-4.162-2.492v-8.2c0-.472.26-.71.779-.71.527 0 .791.238.791.71v8.163c0 .822.801 1.234 2.402 1.234h3.483c1.667 0 2.501-.4 2.501-1.197v-3.576c0-.855-.69-1.283-2.068-1.283h-4.71c-.383 0-.573-.216-.573-.648 0-.432.19-.648.573-.648h4.448c2.6 0 3.9.864 3.9 2.59z"/></g><g><path fill="#fff" d="M149.072 57.83c0 .474-.262.71-.785.71-.507 0-.76-.236-.76-.71v-7.451c0-.44.245-.66.735-.66.54 0 .81.22.81.66z"/></g><g><path fill="#fff" d="M153.557 57.83c0 .474-.257.71-.772.71-.532 0-.798-.236-.798-.71V47.75c0-.465.258-.698.773-.698.531 0 .797.233.797.698z"/></g><g><path fill="#fff" d="M158.08 57.83c0 .474-.261.71-.784.71-.507 0-.761-.236-.761-.71v-7.451c0-.44.245-.66.735-.66.541 0 .81.22.81.66z"/></g><g><path fill="#fff" d="M162.641 51.102v6.728c0 .474-.258.71-.773.71s-.772-.236-.772-.71V47.75c0-.465.262-.698.785-.698.507 0 .76.233.76.698v2.056h3.152c.432 0 .648.216.648.648 0 .432-.216.648-.648.648z"/></g><g><path fill="#fff" d="M179.624 58.516c0 1.603-1.196 2.405-3.588 2.405h-1.969c-.407 0-.611-.217-.611-.65 0-.431.204-.647.611-.647h2.106c1.254 0 1.881-.37 1.881-1.108v-8.174c0-.45.262-.673.785-.673.524 0 .785.224.785.673zm-7.351-.063c-2.75 0-4.125-.834-4.125-2.504v-5.607c0-.45.262-.673.786-.673.523 0 .784.224.784.673v5.607c0 .806.752 1.209 2.256 1.209h4.672c.432 0 .648.215.648.647 0 .432-.216.648-.648.648z"/></g></g></g></g></svg>