<svg xmlns="http://www.w3.org/2000/svg" width="27" height="27" viewBox="0 0 27 27"><defs><clipPath id="wuvca"><path fill="#fff" d="M7 27a7 7 0 0 1-7-7V7a7 7 0 0 1 7-7h13a7 7 0 0 1 7 7v13a7 7 0 0 1-7 7z"/></clipPath><clipPath id="wuvcb"><path fill="#fff" d="M7 13.5a6.5 6.5 0 1 1 13 0 6.5 6.5 0 0 1-13 0z"/></clipPath></defs><g><g><g><g><g><path fill="none" stroke="#fff" stroke-miterlimit="20" stroke-width="4" d="M7 27a7 7 0 0 1-7-7V7a7 7 0 0 1 7-7h13a7 7 0 0 1 7 7v13a7 7 0 0 1-7 7z" clip-path="url(&quot;#wuvca&quot;)"/></g><g><path fill="none" stroke="#fff" stroke-miterlimit="20" stroke-width="4" d="M7 13.5a6.5 6.5 0 1 1 13 0 6.5 6.5 0 0 1-13 0z" clip-path="url(&quot;#wuvcb&quot;)"/></g></g><g><path fill="#fff" d="M19 6.5a1.5 1.5 0 1 1 3 0 1.5 1.5 0 0 1-3 0z"/></g></g></g></g></svg>